# Created by CloudCompare v2.12 alpha
# Created 6/12/2022 16:24
v -0.27300000 -0.22849999 0.99000001
v -0.27300000 0.22849999 0.99000001
v 0.27300000 0.22849999 0.99000001
v 0.27300000 -0.22849999 0.99000001
v -0.27300000 0.22849999 -0.99000001
v -0.27300000 -0.22849999 -0.99000001
v 0.27300000 -0.22849999 -0.99000001
v 0.27300000 0.22849999 -0.99000001
v -0.27299997 -0.22849998 -0.99000001
v -0.27299997 0.22849998 -0.99000001
v -0.27300003 0.22849998 0.99000001
v -0.27300003 -0.22849998 0.99000001
v 0.27300003 -0.22849998 0.99000001
v 0.27300003 0.22849998 0.99000001
v 0.27299997 0.22849998 -0.99000001
v 0.27299997 -0.22849998 -0.99000001
v -0.27299997 -0.22849995 -0.99000001
v -0.27299997 -0.22850004 0.99000001
v 0.27299997 -0.22850004 0.99000001
v 0.27299997 -0.22849995 -0.99000001
v -0.27299997 0.22850004 0.99000001
v -0.27299997 0.22849995 -0.99000001
v 0.27299997 0.22849995 -0.99000001
v 0.27299997 0.22850004 0.99000001
vn 0.00097752 0.00097752 0.99999905
vn 0.00097752 -0.00097752 -0.99999905
vn -0.99999905 0.00097752 0.00097752
vn 0.99999905 0.00097752 -0.00097752
vn 0.00097752 -0.99999905 0.00097752
vn 0.00097752 0.99999905 -0.00097752
g Box
f 1//1 3//1 2//1
f 1//1 4//1 3//1
f 5//2 7//2 6//2
f 5//2 8//2 7//2
f 9//3 11//3 10//3
f 9//3 12//3 11//3
f 13//4 15//4 14//4
f 13//4 16//4 15//4
f 17//5 19//5 18//5
f 17//5 20//5 19//5
f 21//6 23//6 22//6
f 21//6 24//6 23//6
#12 faces
