# Created by CloudCompare v2.12 alpha
# Created 6/12/2022 17:48
v -0.34999999 -0.12500000 0.94644892
v -0.34999999 0.12500000 0.94644892
v 0.34999999 0.12500000 0.94644892
v 0.34999999 -0.12500000 0.94644892
v -0.34999999 0.12500000 0.64644891
v -0.34999999 -0.12500000 0.64644897
v 0.34999999 -0.12500000 0.64644897
v 0.34999999 0.12500000 0.64644891
v -0.34999999 -0.12499999 0.64644897
v -0.34999999 0.12499999 0.64644897
v -0.34999999 0.12499999 0.94644892
v -0.34999999 -0.12499999 0.94644892
v 0.34999999 -0.12499999 0.94644892
v 0.34999999 0.12499999 0.94644892
v 0.34999999 0.12499999 0.64644897
v 0.34999999 -0.12499999 0.64644897
v -0.34999996 -0.12499999 0.64644897
v -0.34999996 -0.12500000 0.94644892
v 0.34999996 -0.12500000 0.94644892
v 0.34999996 -0.12499999 0.64644897
v -0.34999996 0.12500000 0.94644892
v -0.34999996 0.12499999 0.64644897
v 0.34999996 0.12499999 0.64644897
v 0.34999996 0.12500000 0.94644892
v -0.65267277 -0.12500000 0.94999999
v -0.65267277 0.12500000 0.94999999
v -0.35267279 0.12500000 0.94999999
v -0.35267279 -0.12500000 0.94999999
v -0.65267277 0.12500000 -0.94999999
v -0.65267277 -0.12500000 -0.94999999
v -0.35267279 -0.12500000 -0.94999999
v -0.35267279 0.12500000 -0.94999999
v -0.65267277 -0.12499999 -0.94999999
v -0.65267277 0.12499999 -0.94999999
v -0.65267283 0.12499999 0.94999999
v -0.65267283 -0.12499999 0.94999999
v -0.35267276 -0.12499999 0.94999999
v -0.35267276 0.12499999 0.94999999
v -0.35267282 0.12499999 -0.94999999
v -0.35267282 -0.12499999 -0.94999999
v -0.65267277 -0.12499996 -0.94999999
v -0.65267277 -0.12500004 0.94999999
v -0.35267282 -0.12500004 0.94999999
v -0.35267282 -0.12499996 -0.94999999
v -0.65267277 0.12500004 0.94999999
v -0.65267277 0.12499996 -0.94999999
v -0.35267282 0.12499996 -0.94999999
v -0.35267282 0.12500004 0.94999999
v 0.34405783 -0.12500000 0.94999999
v 0.34405783 0.12500000 0.94999999
v 0.64405787 0.12500000 0.94999999
v 0.64405787 -0.12500000 0.94999999
v 0.34405783 0.12500000 -0.94999999
v 0.34405783 -0.12500000 -0.94999999
v 0.64405787 -0.12500000 -0.94999999
v 0.64405787 0.12500000 -0.94999999
v 0.34405786 -0.12499999 -0.94999999
v 0.34405786 0.12499999 -0.94999999
v 0.34405780 0.12499999 0.94999999
v 0.34405780 -0.12499999 0.94999999
v 0.64405787 -0.12499999 0.94999999
v 0.64405787 0.12499999 0.94999999
v 0.64405781 0.12499999 -0.94999999
v 0.64405781 -0.12499999 -0.94999999
v 0.34405786 -0.12499996 -0.94999999
v 0.34405786 -0.12500004 0.94999999
v 0.64405781 -0.12500004 0.94999999
v 0.64405781 -0.12499996 -0.94999999
v 0.34405786 0.12500004 0.94999999
v 0.34405786 0.12499996 -0.94999999
v 0.64405781 0.12499996 -0.94999999
v 0.64405781 0.12500004 0.94999999
vn 0.00097752 0.00097752 0.99999905
vn 0.00097752 -0.00097752 -0.99999905
vn -0.99999905 0.00097752 0.00097752
vn 0.99999905 0.00097752 -0.00097752
vn 0.00097752 -0.99999905 0.00097752
vn 0.00097752 0.99999905 -0.00097752
vn 0.00097752 0.00097752 0.99999905
vn 0.00097752 -0.00097752 -0.99999905
vn -0.99999905 0.00097752 0.00097752
vn 0.99999905 0.00097752 -0.00097752
vn 0.00097752 -0.99999905 0.00097752
vn 0.00097752 0.99999905 -0.00097752
vn 0.00097752 0.00097752 0.99999905
vn 0.00097752 -0.00097752 -0.99999905
vn -0.99999905 0.00097752 0.00097752
vn 0.99999905 0.00097752 -0.00097752
vn 0.00097752 -0.99999905 0.00097752
vn 0.00097752 0.99999905 -0.00097752
g Box
f 1//1 3//1 2//1
f 1//1 4//1 3//1
f 5//2 7//2 6//2
f 5//2 8//2 7//2
f 9//3 11//3 10//3
f 9//3 12//3 11//3
f 13//4 15//4 14//4
f 13//4 16//4 15//4
f 17//5 19//5 18//5
f 17//5 20//5 19//5
f 21//6 23//6 22//6
f 21//6 24//6 23//6
#12 faces
g Box
f 25//7 27//7 26//7
f 25//7 28//7 27//7
f 29//8 31//8 30//8
f 29//8 32//8 31//8
f 33//9 35//9 34//9
f 33//9 36//9 35//9
f 37//10 39//10 38//10
f 37//10 40//10 39//10
f 41//11 43//11 42//11
f 41//11 44//11 43//11
f 45//12 47//12 46//12
f 45//12 48//12 47//12
#12 faces
g Box
f 49//13 51//13 50//13
f 49//13 52//13 51//13
f 53//14 55//14 54//14
f 53//14 56//14 55//14
f 57//15 59//15 58//15
f 57//15 60//15 59//15
f 61//16 63//16 62//16
f 61//16 64//16 63//16
f 65//17 67//17 66//17
f 65//17 68//17 67//17
f 69//18 71//18 70//18
f 69//18 72//18 71//18
#12 faces
